<?xml version="1.0" encoding="utf-8"?>
<!-- Generator: Adobe Illustrator 16.0.0, SVG Export Plug-In . SVG Version: 6.00 Build 0)  -->
<!DOCTYPE svg PUBLIC "-//W3C//DTD SVG 1.1//EN" "http://www.w3.org/Graphics/SVG/1.1/DTD/svg11.dtd">
<svg version="1.1" id="图层_1" xmlns="http://www.w3.org/2000/svg" xmlns:xlink="http://www.w3.org/1999/xlink" x="0px" y="0px"
	 width="400px" height="120px" viewBox="0 0 400 120" enable-background="new 0 0 400 120" xml:space="preserve">
<g>
	<path fill="#2BB6EB" d="M16.48,8.49c0.276,0.139,0.387,0.476,0.248,0.752c-0.054,0.107-0.141,0.194-0.248,0.248l-11.38,7
		c-0.47,0.29-0.85,0.07-0.85-0.48v-14c0-0.55,0.38-0.77,0.85-0.48L16.48,8.49z"/>
	<g>
		<path fill="#FFFFFF" d="M24,1.01h2.2c0.552,0,1,0.448,1,1v14c0,0.553-0.448,1-1,1H24c-0.552,0-1-0.447-1-1v-14
			C23,1.458,23.448,1.01,24,1.01z"/>
		<path fill="#FFFFFF" d="M33.8,1.01H36c0.552,0,1,0.448,1,1v14c0,0.553-0.448,1-1,1h-2.2c-0.552,0-1-0.447-1-1v-14
			C32.8,1.458,33.248,1.01,33.8,1.01z"/>
	</g>
	<g id="enter">
		<path fill="#FFFFFF" d="M81,1.39c0-0.552,0.448-1,1-1h5.41c0.55,0,0.68,0.32,0.29,0.71l-6,6c-0.39,0.39-0.71,0.26-0.71-0.29
			L81,1.39z"/>
		<path fill="#FFFFFF" d="M81,17.18c0,0.552,0.448,1,1,1h5.41c0.55,0,0.68-0.32,0.29-0.71l-6-6c-0.39-0.39-0.71-0.26-0.71,0.29
			L81,17.18z"/>
		<path fill="#FFFFFF" d="M98.8,1.39c0-0.552-0.447-1-1-1h-5.42c-0.55,0-0.68,0.32-0.29,0.71l6,6c0.39,0.39,0.71,0.26,0.71-0.29
			V1.39z"/>
		<path fill="#FFFFFF" d="M98.8,17.18c0,0.552-0.447,1-1,1h-5.42c-0.55,0-0.68-0.32-0.29-0.71l6-6c0.39-0.39,0.71-0.26,0.71,0.29
			V17.18z"/>
	</g>
	<g id="exit">
		<g>
			<path fill="#FFFFFF" d="M112.7,5.01c0,0.553,0.448,1,1,1h4.1c0.55,0,0.68-0.32,0.29-0.71l-4.68-4.68
				c-0.39-0.39-0.71-0.26-0.71,0.29V5.01z"/>
			<path fill="#FFFFFF" d="M105.6,6.01c0.552,0,1-0.447,1-1V0.89c0-0.55-0.32-0.68-0.71-0.29l-4.72,4.68
				c-0.39,0.39-0.26,0.71,0.29,0.71L105.6,6.01z"/>
			<path fill="#FFFFFF" d="M106.6,13.08c0-0.552-0.448-1-1-1h-4.1c-0.55,0-0.68,0.32-0.29,0.71l4.68,4.68
				c0.39,0.39,0.71,0.26,0.71-0.29V13.08z"/>
			<path fill="#FFFFFF" d="M113.7,12.08c-0.552,0-1,0.448-1,1v4.1c0,0.55,0.32,0.68,0.71,0.29l4.68-4.68
				c0.39-0.39,0.26-0.71-0.29-0.71H113.7z"/>
		</g>
	</g>
	<g id="unmuted">
		<path fill="#FFFFFF" d="M66.97,5.78c-0.534,0.362-1.157,0.569-1.8,0.6h-3.15c-0.552,0-1,0.448-1,1v5.73c0,0.552,0.448,1,1,1h3.15
			c0.333-0.026,0.667-0.026,1,0c0.257,0.226,0.528,0.437,0.81,0.63l3.54,2.6c0.44,0.33,0.81,0.14,0.81-0.41V3.51
			c0-0.55-0.36-0.73-0.8-0.4L66.97,5.78z"/>
		<path fill="none" stroke="#FFFFFF" stroke-width="1.5" stroke-linecap="round" d="M73.89,2.51c0,0,3.95-0.81,3.87,7.73
			c-0.08,8.54-3.87,7.77-3.87,7.77"/>
		<path fill="none" stroke="#FFFFFF" stroke-width="1.5" stroke-linecap="round" d="M72.6,6.39c0,0,2.63-0.38,2.57,3.85
			c-0.06,4.23-2.58,3.86-2.58,3.86"/>
	</g>
	<g id="muted">
		<path fill="#FFFFFF" d="M46.97,5.78c-0.534,0.362-1.157,0.569-1.8,0.6h-3.15c-0.552,0-1,0.448-1,1v5.73c0,0.552,0.448,1,1,1h3.15
			c0.333-0.026,0.667-0.026,1,0c0.257,0.226,0.528,0.437,0.81,0.63l3.54,2.6c0.44,0.33,0.81,0.14,0.81-0.41V3.51
			c0-0.55-0.36-0.73-0.8-0.4L46.97,5.78z"/>
		<line fill="none" stroke="#FFFFFF" stroke-width="2" stroke-linecap="round" x1="52.83" y1="6.98" x2="58.22" y2="12.36"/>
		<line fill="none" stroke="#FFFFFF" stroke-width="2" stroke-linecap="round" x1="52.83" y1="12.36" x2="58.22" y2="6.98"/>
	</g>
	<path fill="none" stroke="#FFFFFF" d="M128.7,8.59c-6.17-4.21-6.46,7.77,0,3.92"/>
	<path fill="none" stroke="#FFFFFF" d="M135.23,8.59c-6.17-4.21-6.46,7.77,0,3.92"/>
	<path fill="#FFFFFF" d="M122.17,3.36h15.69v13.08h-15.69V3.36z M120.85,2.01v15.73h18.32V2.01H120.85z"/>
	<path fill="#FFFFFF" d="M192.17,2.17l-4.33,2.16V0.01L192.17,2.17z"/>
	<path fill="#FFFFFF" d="M194.9,2.17l-4.33,2.16V0.01L194.9,2.17z"/>
	<path fill="none" stroke="#FFFFFF" stroke-width="2" d="M190,2.17c-4.501-0.005-8.154,3.639-8.16,8.14c0,0.006,0,0.013,0,0.02"/>
	<path fill="none" stroke="#FFFFFF" stroke-width="2" d="M181.85,9.84c-0.011,4.501,3.629,8.159,8.13,8.17c0.007,0,0.013,0,0.02,0"
		/>
	<path fill="none" stroke="#FFFFFF" stroke-width="2" d="M189.63,18.01c4.501,0.006,8.155-3.639,8.16-8.14c0-0.007,0-0.014,0-0.02"
		/>
	<path fill="none" stroke="#FFFFFF" stroke-width="2" d="M162.69,9.66c-0.005,4.501,3.639,8.154,8.14,8.16c0.007,0,0.013,0,0.02,0"
		/>
	<path fill="none" stroke="#FFFFFF" stroke-width="2" d="M170.37,17.81c4.501,0.005,8.154-3.639,8.16-8.14c0-0.006,0-0.013,0-0.02"
		/>
	<path fill="none" stroke="#FFFFFF" stroke-width="2" d="M178.53,10.01c0.006-4.501-3.639-8.154-8.14-8.16c-0.007,0-0.014,0-0.02,0"
		/>
	<path fill="#FFFFFF" d="M166.59,2.17l4.32,2.16V0.01L166.59,2.17z"/>
	<path fill="#FFFFFF" d="M163.87,2.17l4.3,2.16V0.01L163.87,2.17z"/>
	<path fill="#FFFFFF" d="M143.17,3.01h14c1.104,0,2,0.896,2,2v10c0,1.105-0.896,2-2,2h-14c-1.104,0-2-0.895-2-2v-10
		C141.17,3.905,142.065,3.01,143.17,3.01z"/>
	<path fill="#231F20" d="M146.36,13.79c-0.829,0.015-1.619-0.354-2.14-1c-1.067-1.431-1.018-3.405,0.12-4.78
		c0.51-0.56,2-1.65,4.64,0.16L148.42,9c-1.43-1-2.62-1.09-3.34-0.31c-0.796,1.01-0.828,2.424-0.08,3.47
		c0.7,0.86,1.92,0.83,3.45-0.08l0.51,0.86C148.186,13.454,147.288,13.747,146.36,13.79z"/>
	<path fill="#231F20" d="M153.9,13.79c-0.829,0.015-1.619-0.354-2.14-1c-1.066-1.431-1.017-3.405,0.12-4.78
		c0.51-0.56,2-1.65,4.64,0.16L155.96,9c-1.43-1-2.62-1.09-3.34-0.31c-0.796,1.01-0.828,2.424-0.08,3.47
		c0.7,0.86,1.92,0.83,3.45-0.08l0.51,0.86C155.726,13.454,154.828,13.747,153.9,13.79z"/>
	<path fill="#FFFFFF" d="M218.63,9.39c-0.028-0.587-0.433-1.088-1-1.24l-1.851-0.46c-0.381-0.06-0.643-0.418-0.582-0.8
		c0.017-0.108,0.059-0.211,0.123-0.3l1-1.64c0.297-0.504,0.236-1.142-0.15-1.58l0,0c-0.426-0.391-1.053-0.467-1.561-0.19l-1.639,1
		c-0.314,0.226-0.753,0.154-0.979-0.16c-0.062-0.089-0.105-0.192-0.123-0.3l-0.46-1.85c-0.152-0.568-0.653-0.972-1.24-1l0,0
		c-0.587,0.028-1.088,0.432-1.239,1l-0.459,1.85c-0.062,0.382-0.42,0.643-0.802,0.583c-0.108-0.017-0.211-0.059-0.3-0.123l-1.641-1
		c-0.508-0.277-1.135-0.201-1.561,0.19l0,0c-0.391,0.426-0.467,1.053-0.189,1.56l1,1.64c0.226,0.314,0.153,0.751-0.16,0.977
		c-0.09,0.064-0.19,0.106-0.301,0.123l-1.85,0.46c-0.566,0.152-0.973,0.653-1,1.24l0,0c0.027,0.587,0.434,1.088,1,1.24l1.85,0.46
		c0.383,0.06,0.645,0.418,0.584,0.8c-0.018,0.108-0.06,0.211-0.123,0.3l-1,1.64c-0.276,0.507-0.201,1.134,0.189,1.56l0,0
		c0.426,0.391,1.053,0.467,1.561,0.19l1.641-1c0.312-0.226,0.751-0.154,0.977,0.16c0.063,0.089,0.106,0.191,0.125,0.3l0.459,1.85
		c0.151,0.567,0.652,0.972,1.239,1l0,0c0.587-0.028,1.088-0.433,1.24-1l0.46-1.85c0.061-0.382,0.418-0.643,0.8-0.583
		c0.108,0.017,0.211,0.059,0.302,0.123l1.639,1c0.508,0.277,1.135,0.201,1.561-0.19l0,0c0.391-0.426,0.467-1.053,0.189-1.56l-1-1.64
		c-0.226-0.314-0.153-0.751,0.16-0.977c0.09-0.064,0.191-0.106,0.301-0.123l1.85-0.46c0.568-0.151,0.973-0.653,1-1.24L218.63,9.39z
		 M212.95,9.39c-0.011,1.557-1.283,2.811-2.841,2.799c-1.558-0.011-2.812-1.283-2.799-2.84c0.01-1.558,1.281-2.811,2.84-2.8
		c0.006,0,0.014,0,0.02,0c1.542,0.022,2.78,1.278,2.78,2.82V9.39z"/>
	<path fill="#FFFFFF" d="M225,2.84h10c1.104,0,2,0.896,2,2v10c0,1.104-0.896,2-2,2h-10c-1.104,0-2-0.896-2-2v-10
		C223,3.735,223.896,2.84,225,2.84z"/>
	<g id="loop_on">
		<path fill="#FFFFFF" d="M254.221,6.53c1.975,2.466,1.575,6.066-0.891,8.041c-2.467,1.974-6.066,1.576-8.041-0.89
			c-1.756-2.194-1.658-5.339,0.23-7.42L243.9,4.64c-3.012,3.233-2.832,8.295,0.4,11.307c3.233,3.011,8.295,2.832,11.307-0.402
			c2.771-2.974,2.871-7.553,0.231-10.645L254.221,6.53z"/>
		<path fill="#FFFFFF" d="M251.3,3.37c-0.079-0.39,0.171-0.77,0.562-0.85c0.096-0.02,0.193-0.02,0.289,0l5.521,0.77
			c0.54,0.08,0.67,0.46,0.28,0.84l-5,5c-0.391,0.39-0.771,0.26-0.842-0.28L251.3,3.37z"/>
	</g>
	<g id="loop_off" opacity="0.5">
		<path fill="#FFFFFF" d="M274.38,6.78c1.976,2.466,1.576,6.066-0.89,8.041c-2.467,1.974-6.066,1.576-8.041-0.89
			c-1.756-2.194-1.658-5.339,0.23-7.42l-1.619-1.62c-3.013,3.233-2.832,8.295,0.399,11.307c3.233,3.011,8.296,2.832,11.308-0.402
			c2.771-2.974,2.871-7.553,0.231-10.645L274.38,6.78z"/>
		<path fill="#FFFFFF" d="M271.46,3.62c-0.08-0.39,0.171-0.77,0.562-0.85c0.096-0.02,0.193-0.02,0.289,0l5.521,0.77
			c0.54,0.08,0.67,0.46,0.278,0.84l-5,5c-0.389,0.39-0.77,0.26-0.84-0.28L271.46,3.62z"/>
	</g>
	<path fill="#FFFFFF" d="M298.81,9.55c-0.046,0.434-0.436,0.748-0.869,0.701c-0.079-0.009-0.156-0.029-0.229-0.061l-4.859-1.82
		c-0.511-0.19-0.551-0.58-0.069-0.85l6.18-3.57c0.48-0.27,0.79-0.06,0.7,0.49L298.81,9.55z"/>
	<path fill="#FFFFFF" d="M290.17,16.09c-1.01,0.002-2.006-0.241-2.9-0.71c-1.955-1.017-3.188-3.035-3.199-5.24
		c0.08-3.374,2.879-6.044,6.253-5.965c2.536,0.06,4.772,1.682,5.616,4.075l0.102-0.15l2.13,1.06c-0.623-4.43-4.72-7.516-9.149-6.893
		c-3.949,0.556-6.906,3.904-6.971,7.893c0.012,2.943,1.651,5.638,4.262,7c1.18,0.623,2.494,0.949,3.83,0.95
		c2.594,0.005,5.035-1.229,6.568-3.32l-1.8-0.93C293.742,15.274,292.004,16.092,290.17,16.09z"/>
	<path fill="#FFFFFF" d="M303.5,3.01L303.5,3.01c0.828,0,1.5,0.672,1.5,1.5l0,0c0,0.829-0.672,1.5-1.5,1.5l0,0
		c-0.828,0-1.5-0.671-1.5-1.5l0,0C302,3.682,302.672,3.01,303.5,3.01z"/>
	<path fill="#FFFFFF" d="M309,3.01h11c1.104,0,2,0.672,2,1.5l0,0c0,0.829-0.896,1.5-2,1.5h-11c-1.104,0-2-0.671-2-1.5l0,0
		C307,3.682,307.896,3.01,309,3.01z"/>
	<path fill="#FFFFFF" d="M303.5,8.01L303.5,8.01c0.828,0,1.5,0.672,1.5,1.5l0,0c0,0.829-0.672,1.5-1.5,1.5l0,0
		c-0.828,0-1.5-0.671-1.5-1.5l0,0C302,8.682,302.672,8.01,303.5,8.01z"/>
	<path fill="#FFFFFF" d="M309,8.01h11c1.104,0,2,0.672,2,1.5l0,0c0,0.829-0.896,1.5-2,1.5h-11c-1.104,0-2-0.671-2-1.5l0,0
		C307,8.682,307.896,8.01,309,8.01z"/>
	<path fill="#FFFFFF" d="M303.5,13.01L303.5,13.01c0.828,0,1.5,0.672,1.5,1.5l0,0c0,0.829-0.672,1.5-1.5,1.5l0,0
		c-0.828,0-1.5-0.671-1.5-1.5l0,0C302,13.682,302.672,13.01,303.5,13.01z"/>
	<path fill="#FFFFFF" d="M309,13.01h11c1.104,0,2,0.672,2,1.5l0,0c0,0.829-0.896,1.5-2,1.5h-11c-1.104,0-2-0.671-2-1.5l0,0
		C307,13.682,307.896,13.01,309,13.01z"/>
</g>
<g id="big_play">
	<g id="big_play_opaque">
		<path fill="#FFFFFF" d="M60.27,77.01c0.552,0.194,0.843,0.799,0.648,1.352c-0.106,0.305-0.345,0.543-0.648,0.648L29.99,96.5
			c-1,0.55-1.73,0.1-1.73-1v-35c0-1.1,0.78-1.55,1.73-1L60.27,77.01z"/>
		<path opacity="0.75" fill="none" stroke="#FFFFFF" stroke-width="5" enable-background="new    " d="M2.5,79.01
			c0-20.71,16.79-37.5,37.5-37.5c20.711,0,37.5,16.79,37.5,37.5c0,20.711-16.789,37.5-37.5,37.5C19.29,116.51,2.5,99.721,2.5,79.01
			L2.5,79.01z"/>
	</g>
	<g id="big_play_hover">
		<path fill="#FFFFFF" d="M140.27,77.01c0.552,0.194,0.843,0.799,0.648,1.352c-0.106,0.305-0.345,0.543-0.648,0.648L109.99,96.5
			c-1,0.55-1.73,0.1-1.73-1v-35c0-1.1,0.78-1.55,1.73-1L140.27,77.01z"/>
		<path fill="none" stroke="#FFFFFF" stroke-width="5" d="M82.5,79.01c0-20.71,16.79-37.5,37.5-37.5c20.711,0,37.5,16.79,37.5,37.5
			c0,20.711-16.789,37.5-37.5,37.5C99.29,116.51,82.5,99.721,82.5,79.01z"/>
	</g>
	<g id="loading">
		<circle fill="#FFFFFF" cx="201.88" cy="47.13" r="8.13"/>
		<circle opacity="0.4" fill="#FFFFFF" enable-background="new    " cx="233.88" cy="79.01" r="5"/>
		<circle opacity="0.6" fill="#FFFFFF" enable-background="new    " cx="201.88" cy="110.88" r="6"/>
		<circle opacity="0.8" fill="#FFFFFF" enable-background="new    " cx="170.13" cy="79.01" r="7"/>
		<circle opacity="0.9" fill="#FFFFFF" enable-background="new    " cx="178.25" cy="56.34" r="7.5"/>
		<circle opacity="0.3" fill="#FFFFFF" enable-background="new    " cx="226.33" cy="56.09" r="4.5"/>
		<circle opacity="0.5" fill="#FFFFFF" enable-background="new    " cx="225.75" cy="102.76" r="5.5"/>
		<circle opacity="0.7" fill="#FFFFFF" enable-background="new    " cx="178.25" cy="102.76" r="6.5"/>
	</g>
</g>
</svg>
